<svg width="30" height="30" viewBox="0 0 30 30" fill="none" xmlns="http://www.w3.org/2000/svg">
<g clip-path="url(#clip0_78_4898)">
<path d="M15 2.5C21.9038 2.5 27.5 8.09625 27.5 15C27.5 21.9038 21.9038 27.5 15 27.5C8.09625 27.5 2.5 21.9038 2.5 15C2.5 8.09625 8.09625 2.5 15 2.5ZM15 5C12.5122 5.00135 10.1142 5.92998 8.27436 7.60455C6.43451 9.27911 5.28492 11.5794 5.05008 14.0561C4.81525 16.5328 5.51203 19.0081 7.00437 20.9986C8.4967 22.9891 10.6774 24.3519 13.1206 24.8208C15.5639 25.2897 18.0941 24.831 20.2173 23.5344C22.3405 22.2378 23.9042 20.1963 24.6029 17.8086C25.3016 15.4209 25.0853 12.8586 23.9961 10.6218C22.9069 8.38514 21.0231 6.63475 18.7125 5.7125C18.8227 6.47235 18.6971 7.24772 18.3525 7.93385C18.0079 8.61998 17.461 9.1838 16.7856 9.54914C16.1103 9.91447 15.3391 10.0637 14.5763 9.97667C13.8134 9.88964 13.0957 9.57055 12.52 9.0625C12.2809 8.85235 12.131 8.5589 12.1009 8.24201C12.0707 7.92513 12.1626 7.60868 12.3578 7.35722C12.553 7.10576 12.8367 6.93823 13.1512 6.8888C13.4656 6.83938 13.7871 6.91179 14.05 7.09125L14.1738 7.1875C14.3255 7.32129 14.5074 7.41627 14.7039 7.46428C14.9004 7.51229 15.1056 7.5119 15.3019 7.46314C15.4982 7.41438 15.6797 7.31871 15.8309 7.18434C15.9821 7.04997 16.0984 6.88091 16.1699 6.69169C16.2414 6.50246 16.2659 6.29872 16.2413 6.09794C16.2167 5.89717 16.1437 5.70537 16.0286 5.539C15.9136 5.37264 15.7599 5.23668 15.5807 5.14279C15.4016 5.04891 15.2023 4.99991 15 5ZM18.3 19.04C18.5545 19.2522 18.7144 19.5568 18.7444 19.8869C18.7744 20.2169 18.6721 20.5454 18.46 20.8C17.62 21.8088 16.405 22.5 15 22.5C13.595 22.5 12.38 21.8088 11.54 20.8C11.3372 20.5444 11.2423 20.2196 11.2758 19.8949C11.3092 19.5703 11.4683 19.2717 11.719 19.0628C11.9697 18.8539 12.2921 18.7513 12.6174 18.7769C12.9427 18.8026 13.2451 18.9544 13.46 19.2C13.9088 19.7375 14.4575 20 15 20C15.5425 20 16.0913 19.7375 16.54 19.2C16.7522 18.9455 17.0568 18.7856 17.3869 18.7556C17.7169 18.7256 18.0454 18.8279 18.3 19.04ZM10.625 12.5C11.1223 12.5 11.5992 12.6975 11.9508 13.0492C12.3025 13.4008 12.5 13.8777 12.5 14.375C12.5 14.8723 12.3025 15.3492 11.9508 15.7008C11.5992 16.0525 11.1223 16.25 10.625 16.25C10.1277 16.25 9.65081 16.0525 9.29918 15.7008C8.94754 15.3492 8.75 14.8723 8.75 14.375C8.75 13.8777 8.94754 13.4008 9.29918 13.0492C9.65081 12.6975 10.1277 12.5 10.625 12.5ZM19.375 12.5C19.8723 12.5 20.3492 12.6975 20.7008 13.0492C21.0525 13.4008 21.25 13.8777 21.25 14.375C21.25 14.8723 21.0525 15.3492 20.7008 15.7008C20.3492 16.0525 19.8723 16.25 19.375 16.25C18.8777 16.25 18.4008 16.0525 18.0492 15.7008C17.6975 15.3492 17.5 14.8723 17.5 14.375C17.5 13.8777 17.6975 13.4008 18.0492 13.0492C18.4008 12.6975 18.8777 12.5 19.375 12.5Z" fill="#018CB5"/>
</g>
<defs>
<clipPath id="clip0_78_4898">
<rect width="30" height="30" fill="white"/>
</clipPath>
</defs>
</svg>
