<svg width="26" height="30" viewBox="0 0 26 30" fill="none" xmlns="http://www.w3.org/2000/svg">
<path d="M8.34168 5.7C8.34168 4.2015 9.5951 3 11.1583 3C12.7216 3 13.975 4.2015 13.975 5.7C13.975 7.1985 12.7216 8.4 11.1583 8.4C9.5951 8.4 8.34168 7.1985 8.34168 5.7ZM18.2 17.85C18.1936 16.9852 17.9236 16.141 17.4231 15.4215C16.9227 14.7019 16.2137 14.1383 15.3833 13.8C15.3833 11.4915 13.3835 9.642 10.933 9.75C8.65152 9.8715 6.93335 11.829 6.93335 14.016V21.9C6.93335 22.6425 7.5671 23.25 8.34168 23.25H9.75002V27.975C9.75002 29.0955 10.6936 30 11.8625 30C13.0314 30 13.975 29.0955 13.975 27.975V23.25H16.7917C17.5663 23.25 18.2 22.6425 18.2 21.9V17.85Z" fill="#018CB5"/>
</svg>
